<svg width="16" height="16" viewBox="0 0 16 16" fill="none" xmlns="http://www.w3.org/2000/svg">
  <mask id="path-1-outside-1" maskUnits="userSpaceOnUse" x="0" y="0" width="16" height="16" fill="black">
    <rect fill="white" width="16" height="16"/>
    <path fill-rule="evenodd" clip-rule="evenodd"
          d="M11.193 1.25128L1.9817 10.4677C1.94262 10.5068 1.9152 10.5564 1.90295 10.6107L1.00691 14.6445C0.985323 14.742 1.01507 14.8436 1.08566 14.9142C1.1405 14.9696 1.21517 15 1.29159 15C1.31259 15 1.33359 14.9977 1.35459 14.993L5.38679 14.0965C5.44104 14.0842 5.49062 14.0573 5.52971 14.0177L13.268 6.27506C13.2703 6.27273 13.2733 6.27214 13.2756 6.26981C13.2779 6.26747 13.2785 6.26456 13.2808 6.26222L14.741 4.80125C15.0863 4.45571 15.0863 3.89362 14.741 3.54808L12.4455 1.25128C12.1112 0.916241 11.5278 0.916241 11.193 1.25128ZM5.27916 13.4451L2.55603 10.7205L9.93264 3.33919L12.6558 6.06384L5.27916 13.4451ZM2.81682 14.0712L1.92926 13.1832L2.34124 11.3289L4.66954 13.659L2.81682 14.0712ZM1.77935 13.8579L2.14172 14.2202L1.67548 14.3235L1.77935 13.8579ZM14.3285 4.38828L13.0684 5.64904L10.3453 2.92439L11.6054 1.66363C11.7197 1.54923 11.9186 1.54923 12.033 1.66363L14.3285 3.96044C14.4463 4.07834 14.4463 4.27037 14.3285 4.38828Z"/>
  </mask>
  <path fill-rule="evenodd" clip-rule="evenodd"
        d="M11.193 1.25128L1.9817 10.4677C1.94262 10.5068 1.9152 10.5564 1.90295 10.6107L1.00691 14.6445C0.985323 14.742 1.01507 14.8436 1.08566 14.9142C1.1405 14.9696 1.21517 15 1.29159 15C1.31259 15 1.33359 14.9977 1.35459 14.993L5.38679 14.0965C5.44104 14.0842 5.49062 14.0573 5.52971 14.0177L13.268 6.27506C13.2703 6.27273 13.2733 6.27214 13.2756 6.26981C13.2779 6.26747 13.2785 6.26456 13.2808 6.26222L14.741 4.80125C15.0863 4.45571 15.0863 3.89362 14.741 3.54808L12.4455 1.25128C12.1112 0.916241 11.5278 0.916241 11.193 1.25128ZM5.27916 13.4451L2.55603 10.7205L9.93264 3.33919L12.6558 6.06384L5.27916 13.4451ZM2.81682 14.0712L1.92926 13.1832L2.34124 11.3289L4.66954 13.659L2.81682 14.0712ZM1.77935 13.8579L2.14172 14.2202L1.67548 14.3235L1.77935 13.8579ZM14.3285 4.38828L13.0684 5.64904L10.3453 2.92439L11.6054 1.66363C11.7197 1.54923 11.9186 1.54923 12.033 1.66363L14.3285 3.96044C14.4463 4.07834 14.4463 4.27037 14.3285 4.38828Z"
        fill="#697079"/>
  <path
      d="M11.193 1.25128L11.2991 1.35731V1.35731L11.193 1.25128ZM1.9817 10.4677L1.87561 10.3616H1.87561L1.9817 10.4677ZM1.90295 10.6107L1.75663 10.5777L1.75652 10.5782L1.90295 10.6107ZM1.00691 14.6445L0.860476 14.612L0.860455 14.6121L1.00691 14.6445ZM1.08566 14.9142L1.19232 14.8087L1.19176 14.8082L1.08566 14.9142ZM1.35459 14.993L1.32203 14.8466L1.32203 14.8466L1.35459 14.993ZM5.38679 14.0965L5.41934 14.2429L5.41984 14.2428L5.38679 14.0965ZM5.52971 14.0177L5.42361 13.9116L5.42283 13.9124L5.52971 14.0177ZM13.268 6.27506L13.3741 6.3811L13.3741 6.3811L13.268 6.27506ZM13.2756 6.26981L13.3817 6.37585L13.3817 6.37583L13.2756 6.26981ZM13.2808 6.26222L13.3869 6.36827L13.3869 6.36826L13.2808 6.26222ZM14.741 4.80125L14.6349 4.69522V4.69522L14.741 4.80125ZM14.741 3.54808L14.6349 3.65412V3.65412L14.741 3.54808ZM12.4455 1.25128L12.3393 1.35722L12.3394 1.35731L12.4455 1.25128ZM5.27916 13.4451L5.17307 13.5512L5.27917 13.6573L5.38526 13.5512L5.27916 13.4451ZM2.55603 10.7205L2.44993 10.6145L2.34396 10.7205L2.44993 10.8265L2.55603 10.7205ZM9.93264 3.33919L10.0387 3.23316L9.93263 3.127L9.82654 3.23316L9.93264 3.33919ZM12.6558 6.06384L12.7619 6.16987L12.8678 6.06384L12.7619 5.9578L12.6558 6.06384ZM2.81682 14.0712L2.71072 14.1773L2.76897 14.2356L2.84939 14.2177L2.81682 14.0712ZM1.92926 13.1832L1.78283 13.1507L1.76498 13.231L1.82316 13.2892L1.92926 13.1832ZM2.34124 11.3289L2.44734 11.2228L2.2541 11.0294L2.19481 11.2963L2.34124 11.3289ZM4.66954 13.659L4.70212 13.8055L4.96864 13.7462L4.77565 13.553L4.66954 13.659ZM1.77935 13.8579L1.88541 13.7518L1.69238 13.5588L1.63294 13.8252L1.77935 13.8579ZM2.14172 14.2202L2.17416 14.3667L2.44116 14.3075L2.24779 14.1142L2.14172 14.2202ZM1.67548 14.3235L1.52907 14.2909L1.47775 14.521L1.70792 14.47L1.67548 14.3235ZM14.3285 4.38828L14.2224 4.28224V4.28224L14.3285 4.38828ZM13.0684 5.64904L12.9623 5.75508L13.0684 5.86123L13.1745 5.75508L13.0684 5.64904ZM10.3453 2.92439L10.2392 2.81836L10.1332 2.92439L10.2392 3.03043L10.3453 2.92439ZM11.6054 1.66363L11.7114 1.76967L11.6054 1.66363ZM12.033 1.66363L11.9269 1.76967L12.033 1.66363ZM14.3285 3.96044L14.4346 3.8544L14.3285 3.96044ZM11.0869 1.14524L1.87561 10.3616L2.0878 10.5737L11.2991 1.35731L11.0869 1.14524ZM1.87561 10.3616C1.81652 10.4208 1.77513 10.4957 1.75663 10.5777L2.04927 10.6437C2.05527 10.6171 2.06872 10.5928 2.0878 10.5737L1.87561 10.3616ZM1.75652 10.5782L0.860476 14.612L1.15334 14.6771L2.04938 10.6432L1.75652 10.5782ZM0.860455 14.6121C0.827757 14.7598 0.872887 14.9135 0.979566 15.0202L1.19176 14.8082C1.15726 14.7736 1.14289 14.7243 1.15336 14.677L0.860455 14.6121ZM0.979006 15.0197C1.06248 15.1041 1.17575 15.15 1.29159 15.15V14.85C1.25459 14.85 1.21852 14.8352 1.19232 14.8087L0.979006 15.0197ZM1.29159 15.15C1.3238 15.15 1.35572 15.1464 1.38715 15.1394L1.32203 14.8466C1.31146 14.8489 1.30137 14.85 1.29159 14.85V15.15ZM1.38715 15.1394L5.41934 14.2429L5.35423 13.95L1.32203 14.8466L1.38715 15.1394ZM5.41984 14.2428C5.50095 14.2244 5.57651 14.1839 5.63659 14.1229L5.42283 13.9124C5.40474 13.9308 5.38112 13.944 5.35373 13.9501L5.41984 14.2428ZM5.6358 14.1237L13.3741 6.3811L13.1619 6.16903L5.42361 13.9116L5.6358 14.1237ZM13.3741 6.3811C13.3657 6.38949 13.3578 6.39528 13.3523 6.39892C13.3496 6.40068 13.3474 6.40198 13.3461 6.4027C13.345 6.40334 13.3441 6.40383 13.3447 6.40354C13.3448 6.40347 13.3464 6.40261 13.3481 6.40159C13.35 6.40049 13.3528 6.39881 13.3561 6.39662C13.363 6.39215 13.3721 6.38541 13.3817 6.37585L13.1695 6.16376C13.1779 6.15537 13.1858 6.14959 13.1913 6.14595C13.194 6.14419 13.1962 6.14289 13.1974 6.14217C13.1985 6.14153 13.1994 6.14104 13.1989 6.14133C13.1988 6.1414 13.1972 6.14226 13.1955 6.14328C13.1936 6.14438 13.1907 6.14607 13.1874 6.14825C13.1806 6.15273 13.1715 6.15947 13.1619 6.16903L13.3741 6.3811ZM13.3817 6.37583C13.3912 6.36627 13.398 6.35711 13.4024 6.35029C13.4046 6.34697 13.4063 6.34414 13.4074 6.34225C13.4084 6.3405 13.4093 6.33894 13.4094 6.33882C13.4097 6.33829 13.4092 6.33919 13.4085 6.34029C13.4078 6.34153 13.4065 6.34372 13.4047 6.34641C13.4011 6.35195 13.3953 6.35987 13.3869 6.36827L13.1747 6.15618C13.1652 6.16574 13.1585 6.1749 13.154 6.18172C13.1518 6.18505 13.1501 6.18788 13.149 6.18977C13.148 6.19152 13.1471 6.19309 13.1471 6.19321C13.1468 6.19375 13.1473 6.19284 13.1479 6.19175C13.1486 6.19051 13.1499 6.18832 13.1517 6.18564C13.1553 6.1801 13.1611 6.17218 13.1695 6.16379L13.3817 6.37583ZM13.3869 6.36826L14.8471 4.90729L14.6349 4.69522L13.1747 6.15618L13.3869 6.36826ZM14.8471 4.90729C15.251 4.50318 15.251 3.84616 14.8471 3.44204L14.6349 3.65412C14.9217 3.94109 14.9217 4.40825 14.6349 4.69522L14.8471 4.90729ZM14.8471 3.44204L12.5516 1.14524L12.3394 1.35731L14.6349 3.65412L14.8471 3.44204ZM12.5516 1.14533C12.1587 0.751505 11.4803 0.751638 11.0869 1.14524L11.2991 1.35731C11.5754 1.08084 12.0637 1.08098 12.3393 1.35722L12.5516 1.14533ZM5.38526 13.3391L2.66213 10.6144L2.44993 10.8265L5.17307 13.5512L5.38526 13.3391ZM2.66213 10.8265L10.0387 3.44523L9.82654 3.23316L2.44993 10.6145L2.66213 10.8265ZM9.82654 3.44523L12.5497 6.16988L12.7619 5.9578L10.0387 3.23316L9.82654 3.44523ZM12.5497 5.95781L5.17306 13.3391L5.38526 13.5512L12.7619 6.16987L12.5497 5.95781ZM2.92291 13.9652L2.03536 13.0772L1.82316 13.2892L2.71072 14.1773L2.92291 13.9652ZM2.07569 13.2157L2.48767 11.3614L2.19481 11.2963L1.78283 13.1507L2.07569 13.2157ZM2.23513 11.4349L4.56343 13.7651L4.77565 13.553L2.44734 11.2228L2.23513 11.4349ZM4.63696 13.5126L2.78424 13.9248L2.84939 14.2177L4.70212 13.8055L4.63696 13.5126ZM1.67328 13.9639L2.03565 14.3263L2.24779 14.1142L1.88541 13.7518L1.67328 13.9639ZM2.10928 14.0738L1.64303 14.1771L1.70792 14.47L2.17416 14.3667L2.10928 14.0738ZM1.82188 14.3562L1.92575 13.8905L1.63294 13.8252L1.52907 14.2909L1.82188 14.3562ZM14.2224 4.28224L12.9623 5.543L13.1745 5.75508L14.4346 4.49431L14.2224 4.28224ZM13.1745 5.543L10.4514 2.81836L10.2392 3.03043L12.9623 5.75508L13.1745 5.543ZM10.4514 3.03043L11.7114 1.76967L11.4993 1.55759L10.2392 2.81836L10.4514 3.03043ZM11.7114 1.76967C11.7672 1.71388 11.8711 1.71388 11.9269 1.76967L12.1391 1.55759C11.9661 1.38457 11.6722 1.38457 11.4993 1.55759L11.7114 1.76967ZM11.9269 1.76967L14.2224 4.06647L14.4346 3.8544L12.1391 1.55759L11.9269 1.76967ZM14.2224 4.06647C14.2817 4.1258 14.2817 4.22291 14.2224 4.28224L14.4346 4.49431C14.611 4.31784 14.611 4.03088 14.4346 3.8544L14.2224 4.06647Z"
      fill="#697079" mask="url(#path-1-outside-1)"/>
</svg>
