<svg width="16" height="16" viewBox="0 0 16 16" fill="none" xmlns="http://www.w3.org/2000/svg">
<circle cx="8" cy="8" r="7.5" stroke="#697079"/>
<rect x="4" y="4" width="8" height="8" fill="white" fill-opacity="0.01"/>
<path fill-rule="evenodd" clip-rule="evenodd" d="M8.28315 7.88564L11.1106 5.05901C11.2179 4.95051 11.2179 4.77745 11.1106 4.67031C11.0035 4.56318 10.8293 4.56318 10.7222 4.67031L7.89473 7.49695L5.06728 4.67031C4.96015 4.56318 4.78599 4.56318 4.67886 4.67031C4.57159 4.77745 4.57159 4.95051 4.67886 5.05901L7.50631 7.88564L4.67886 10.7136C4.57159 10.8208 4.57159 10.9939 4.67886 11.1024C4.73242 11.1559 4.80274 11.182 4.87307 11.182C4.94339 11.182 5.01371 11.1559 5.06728 11.1024L7.89473 8.27434L10.7222 11.1024C10.7758 11.1559 10.8461 11.182 10.9164 11.182C10.9867 11.182 11.057 11.1559 11.1106 11.1024C11.2179 10.9939 11.2179 10.8208 11.1106 10.7136L8.28315 7.88564Z" fill="#697079" stroke="#697079" stroke-width="0.3"/>
</svg>
