<svg width="14" height="14" viewBox="0 0 14 14" fill="none" xmlns="http://www.w3.org/2000/svg">
<path fill-rule="evenodd" clip-rule="evenodd" d="M12.5 6.45836H7.50003V1.04169C7.50003 0.743774 7.27604 0.500024 7.00003 0.500024C6.72403 0.500024 6.50003 0.743774 6.50003 1.04169V6.45836H1.50003C1.22403 6.45836 1.00002 6.70211 1.00002 7.00003C1.00002 7.30065 1.22403 7.54169 1.50003 7.54169H6.50003V12.9584C6.50003 13.2589 6.72403 13.5 7.00003 13.5C7.27604 13.5 7.50003 13.2589 7.50003 12.9584V7.54169H12.5C12.776 7.54169 13 7.30065 13 7.00003C13 6.70211 12.776 6.45836 12.5 6.45836Z" fill="#697079"/>
<path fill-rule="evenodd" clip-rule="evenodd" d="M6.40003 1.04169C6.40003 0.696367 6.6613 0.400024 7.00003 0.400024C7.33878 0.400024 7.60003 0.696368 7.60003 1.04169V6.35836H12.5C12.8388 6.35836 13.1 6.65471 13.1 7.00003C13.1 7.34839 12.8385 7.64169 12.5 7.64169H7.60003V12.9584C7.60003 13.3067 7.33847 13.6 7.00003 13.6C6.6616 13.6 6.40003 13.3067 6.40003 12.9584V7.64169H1.50003C1.1616 7.64169 0.900024 7.34839 0.900024 7.00003C0.900024 6.6547 1.16129 6.35836 1.50003 6.35836H6.40003V1.04169ZM7.00003 0.600024C6.78677 0.600024 6.60003 0.791181 6.60003 1.04169V6.55836H1.50003C1.28677 6.55836 1.10002 6.74952 1.10002 7.00003C1.10002 7.2529 1.28646 7.44169 1.50003 7.44169H6.60003V12.9584C6.60003 13.2112 6.78646 13.4 7.00003 13.4C7.21361 13.4 7.40003 13.2112 7.40003 12.9584V7.44169H12.5C12.7136 7.44169 12.9 7.25291 12.9 7.00003C12.9 6.74952 12.7133 6.55836 12.5 6.55836H7.40003V1.04169C7.40003 0.79118 7.2133 0.600024 7.00003 0.600024Z" fill="#697079"/>
</svg>
