<svg width="16" height="15" viewBox="0 0 16 15" fill="none" xmlns="http://www.w3.org/2000/svg">
<mask id="path-1-outside-1" maskUnits="userSpaceOnUse" x="-0.0874634" y="-0.696045" width="16" height="16" fill="black">
<rect fill="white" x="-0.0874634" y="-0.696045" width="16" height="16"/>
<path fill-rule="evenodd" clip-rule="evenodd" d="M9.95078 10.0516C8.99681 10.8588 7.77378 11.3358 6.42843 11.3358C3.3953 11.3358 0.912537 8.86522 0.912537 5.81985C0.912537 2.78672 3.3953 0.303955 6.42843 0.303955C9.4738 0.303955 11.9443 2.77449 11.9443 5.81985C11.9443 7.15296 11.4551 8.38823 10.6601 9.3422L14.9408 13.6228C15.1365 13.8185 15.1365 14.1365 14.9408 14.3322C14.8429 14.43 14.7206 14.479 14.5861 14.479C14.4516 14.479 14.3293 14.43 14.2314 14.3322L9.95078 10.0516ZM10.9414 5.81979C10.9414 3.33703 8.92342 1.30678 6.42843 1.30678C3.94566 1.30678 1.91542 3.33703 1.91542 5.81979C1.91542 8.30256 3.93343 10.3328 6.42843 10.3328C8.92342 10.3328 10.9414 8.31479 10.9414 5.81979Z"/>
</mask>
<path fill-rule="evenodd" clip-rule="evenodd" d="M9.95078 10.0516C8.99681 10.8588 7.77378 11.3358 6.42843 11.3358C3.3953 11.3358 0.912537 8.86522 0.912537 5.81985C0.912537 2.78672 3.3953 0.303955 6.42843 0.303955C9.4738 0.303955 11.9443 2.77449 11.9443 5.81985C11.9443 7.15296 11.4551 8.38823 10.6601 9.3422L14.9408 13.6228C15.1365 13.8185 15.1365 14.1365 14.9408 14.3322C14.8429 14.43 14.7206 14.479 14.5861 14.479C14.4516 14.479 14.3293 14.43 14.2314 14.3322L9.95078 10.0516ZM10.9414 5.81979C10.9414 3.33703 8.92342 1.30678 6.42843 1.30678C3.94566 1.30678 1.91542 3.33703 1.91542 5.81979C1.91542 8.30256 3.93343 10.3328 6.42843 10.3328C8.92342 10.3328 10.9414 8.31479 10.9414 5.81979Z" fill="#697079"/>
<path d="M9.95078 10.0516L10.0215 9.98085L9.95643 9.91579L9.88619 9.97522L9.95078 10.0516ZM10.6601 9.3422L10.5833 9.27818L10.5249 9.34834L10.5894 9.41291L10.6601 9.3422ZM14.9408 13.6228L15.0115 13.5521V13.5521L14.9408 13.6228ZM14.9408 14.3322L15.0115 14.4029L15.0115 14.4029L14.9408 14.3322ZM14.2314 14.3322L14.1607 14.4029H14.1607L14.2314 14.3322ZM6.42843 11.4358C7.79803 11.4358 9.04381 10.95 10.0154 10.1279L9.88619 9.97522C8.94981 10.7675 7.74952 11.2358 6.42843 11.2358V11.4358ZM0.812537 5.81985C0.812537 8.92059 3.34022 11.4358 6.42843 11.4358V11.2358C3.45039 11.2358 1.01254 8.80984 1.01254 5.81985H0.812537ZM6.42843 0.203955C3.34007 0.203955 0.812537 2.73149 0.812537 5.81985H1.01254C1.01254 2.84195 3.45053 0.403955 6.42843 0.403955V0.203955ZM12.0443 5.81985C12.0443 2.71926 9.52903 0.203955 6.42843 0.203955V0.403955C9.41857 0.403955 11.8443 2.82972 11.8443 5.81985H12.0443ZM10.737 9.40622C11.546 8.43532 12.0443 7.17768 12.0443 5.81985H11.8443C11.8443 7.12825 11.3642 8.34114 10.5833 9.27818L10.737 9.40622ZM15.0115 13.5521L10.7309 9.27149L10.5894 9.41291L14.8701 13.6935L15.0115 13.5521ZM15.0115 14.4029C15.2462 14.1682 15.2462 13.7869 15.0115 13.5521L14.8701 13.6935C15.0267 13.8502 15.0267 14.1048 14.8701 14.2615L15.0115 14.4029ZM14.5861 14.579C14.7467 14.579 14.8945 14.5198 15.0115 14.4029L14.8701 14.2615C14.7913 14.3402 14.6946 14.379 14.5861 14.379V14.579ZM14.1607 14.4029C14.2776 14.5198 14.4255 14.579 14.5861 14.579V14.379C14.4776 14.379 14.3809 14.3402 14.3021 14.2615L14.1607 14.4029ZM9.88007 10.1223L14.1607 14.4029L14.3021 14.2615L10.0215 9.98085L9.88007 10.1223ZM6.42843 1.40678C8.86802 1.40678 10.8414 3.39208 10.8414 5.81979H11.0414C11.0414 3.28197 8.97883 1.20678 6.42843 1.20678V1.40678ZM2.01542 5.81979C2.01542 3.39225 4.00089 1.40678 6.42843 1.40678V1.20678C3.89043 1.20678 1.81542 3.2818 1.81542 5.81979H2.01542ZM6.42843 10.2328C3.98884 10.2328 2.01542 8.2475 2.01542 5.81979H1.81542C1.81542 8.35761 3.87803 10.4328 6.42843 10.4328V10.2328ZM10.8414 5.81979C10.8414 8.25956 8.8682 10.2328 6.42843 10.2328V10.4328C8.97865 10.4328 11.0414 8.37002 11.0414 5.81979H10.8414Z" fill="#697079" mask="url(#path-1-outside-1)"/>
</svg>
