<svg width="18" height="17" viewBox="0 0 18 17" fill="none" xmlns="http://www.w3.org/2000/svg">
<path d="M8.21781 1.66493C8.36432 1.50598 8.35658 1.25617 8.20052 1.10695C8.04446 0.957735 7.79919 0.96562 7.65268 1.12456L1.10502 8.22803C1.03603 8.30287 0.999818 8.40026 1 8.49903C0.99982 8.59778 1.03602 8.69516 1.10498 8.76999L7.65264 15.8754C7.79913 16.0344 8.0444 16.0423 8.20048 15.8931C8.35656 15.7439 8.36434 15.4941 8.21785 15.3351L2.28288 8.89459H16.6124C16.8265 8.89459 17 8.71786 17 8.49985V8.49821C17 8.2802 16.8265 8.10346 16.6124 8.10346H2.28305L8.21781 1.66493Z" fill="#697079" stroke="#697079" stroke-width="0.8" stroke-linecap="round" stroke-linejoin="round"/>
</svg>
