<svg width="24" height="24" viewBox="0 0 24 24" fill="none" xmlns="http://www.w3.org/2000/svg">
<path d="M5.39044 13.3767V16.9672C5.39044 17.5195 5.83816 17.9672 6.39044 17.9672H17.7037C18.256 17.9672 18.7037 17.5195 18.7037 16.9672V13.3767" stroke="#697079" stroke-linecap="round"/>
<path d="M11.5472 15.0981C11.5472 15.3743 11.771 15.5981 12.0472 15.5981C12.3233 15.5981 12.5472 15.3743 12.5472 15.0981H11.5472ZM12.4007 4.98983C12.2055 4.79457 11.8889 4.79457 11.6936 4.98983L8.51165 8.17181C8.31638 8.36707 8.31638 8.68366 8.51165 8.87892C8.70691 9.07418 9.02349 9.07418 9.21875 8.87892L12.0472 6.05049L14.8756 8.87892C15.0709 9.07418 15.3875 9.07418 15.5827 8.87892C15.778 8.68366 15.778 8.36707 15.5827 8.17181L12.4007 4.98983ZM12.5472 15.0981V5.34338H11.5472V15.0981H12.5472Z" fill="#697079"/>
</svg>
