<svg width="14" height="14" viewBox="0 0 14 14" fill="none" xmlns="http://www.w3.org/2000/svg">
<rect width="14" height="14" fill="white" fill-opacity="0.01"/>
<path fill-rule="evenodd" clip-rule="evenodd" d="M7.49555 6.79978L12.4436 1.85318C12.6313 1.66329 12.6313 1.36044 12.4436 1.17296C12.2561 0.985478 11.9514 0.985478 11.7639 1.17296L6.81581 6.11957L1.86777 1.17296C1.68029 0.985478 1.37551 0.985478 1.18803 1.17296C1.00031 1.36044 1.00031 1.66329 1.18803 1.85318L6.13608 6.79978L1.18803 11.7488C1.00031 11.9363 1.00031 12.2392 1.18803 12.429C1.28177 12.5228 1.40484 12.5684 1.5279 12.5684C1.65097 12.5684 1.77403 12.5228 1.86777 12.429L6.81581 7.48L11.7639 12.429C11.8576 12.5228 11.9807 12.5684 12.1038 12.5684C12.2268 12.5684 12.3498 12.5228 12.4436 12.429C12.6313 12.2392 12.6313 11.9363 12.4436 11.7488L7.49555 6.79978Z" fill="#697079" stroke="#697079" stroke-width="0.3"/>
</svg>
